<?xml version="1.0" standalone="no"?>
<!DOCTYPE svg PUBLIC "-//W3C//DTD SVG 20010904//EN"
 "http://www.w3.org/TR/2001/REC-SVG-20010904/DTD/svg10.dtd">
<svg version="1.0" xmlns="http://www.w3.org/2000/svg"
 width="1280.000000pt" height="960.000000pt" viewBox="0 0 1280.000000 960.000000"
 preserveAspectRatio="xMidYMid meet">
<g transform="translate(0.000000,960.000000) scale(0.100000,-0.100000)"
fill="#000000" stroke="none">
<path d="M4105 9040 c-463 -15 -802 -60 -1285 -170 -473 -108 -829 -226 -1210
-399 -456 -208 -792 -490 -1107 -929 -111 -155 -196 -347 -253 -572 -53 -207
-63 -306 -64 -625 -1 -312 5 -382 56 -655 85 -467 148 -654 302 -904 123 -201
212 -314 385 -487 l166 -165 327 -217 c405 -268 467 -302 601 -331 23 -6 37
-26 96 -144 176 -351 278 -594 296 -705 9 -53 38 -80 81 -75 39 5 41 2 15 -26
-31 -34 -31 -101 0 -135 16 -17 30 -21 57 -19 47 4 70 38 113 166 67 204 275
746 347 905 40 87 91 156 140 190 l38 27 610 0 c644 0 845 8 1092 40 196 25
571 84 737 116 257 50 612 146 732 199 l53 24 38 -21 c20 -12 66 -40 102 -63
36 -23 99 -61 142 -84 42 -23 155 -99 252 -169 97 -70 233 -158 303 -197 70
-38 204 -118 298 -176 193 -120 264 -158 373 -198 72 -27 374 -119 452 -139
26 -6 34 -14 33 -28 -6 -59 -23 -412 -23 -482 0 -81 -1 -83 -40 -133 -47 -59
-49 -81 -14 -116 20 -20 31 -24 57 -19 18 4 44 6 60 6 39 -1 77 40 77 82 0 29
13 46 105 135 63 61 154 134 227 184 69 46 165 123 219 175 77 74 105 95 145
107 127 38 593 115 974 162 275 34 852 125 950 150 307 78 766 304 915 451 64
62 163 200 207 289 85 168 132 423 163 881 14 201 16 376 12 1065 l-4 824 -27
164 c-35 210 -79 361 -162 559 -101 241 -125 288 -210 407 -100 141 -220 260
-416 412 -327 255 -492 337 -916 453 -329 90 -453 105 -907 103 -592 -1 -1251
-44 -1740 -113 -115 -17 -327 -44 -470 -60 -277 -32 -375 -47 -550 -85 -60
-12 -141 -26 -180 -30 -73 -7 -102 -18 -122 -44 -8 -12 -39 -17 -135 -22
l-123 -6 -110 52 c-272 130 -913 341 -1172 386 -211 36 -580 46 -1108 29z"/>
<path d="M3263 2575 c-67 -29 -134 -140 -263 -430 -142 -321 -219 -465 -276
-515 -31 -26 -40 -30 -72 -24 -77 14 -130 54 -261 197 -132 145 -256 312 -273
370 -25 83 -102 114 -154 61 -28 -27 -29 -60 -4 -154 6 -25 13 -54 16 -64 2
-11 12 -63 23 -115 11 -53 23 -112 26 -131 14 -79 25 -138 35 -185 6 -27 13
-63 16 -80 3 -16 14 -68 24 -115 10 -47 21 -96 24 -110 2 -14 10 -47 15 -75 6
-27 16 -72 21 -100 6 -27 12 -59 14 -70 7 -33 46 -229 49 -243 1 -10 -13 -14
-50 -16 -58 -3 -98 -24 -108 -58 -4 -13 -40 -54 -79 -93 -122 -119 -166 -201
-180 -336 -10 -94 5 -138 72 -220 l57 -69 1873 0 1873 0 -2 153 c-4 241 -47
375 -156 484 -77 77 -131 103 -228 110 l-76 6 5 31 c7 46 23 133 36 196 6 30
14 66 16 80 3 14 14 66 25 115 12 50 23 101 25 115 3 14 14 66 25 115 12 50
23 101 25 115 3 14 14 70 25 125 11 55 22 111 24 125 2 14 12 81 24 150 11 69
22 145 25 170 2 25 7 70 11 101 12 89 -28 149 -98 149 -41 0 -84 -38 -238
-211 -256 -290 -384 -404 -432 -386 -26 10 -46 49 -67 131 -23 93 -26 119 -39
346 -13 231 -28 289 -82 329 -45 33 -103 34 -169 3 -44 -20 -108 -78 -310
-277 -140 -139 -269 -260 -287 -269 -40 -20 -111 -21 -151 -1 -23 12 -36 31
-57 83 -15 37 -29 75 -30 84 -10 49 -50 183 -77 254 -46 124 -114 179 -185
149z"/>
<path d="M9360 2266 c-142 -53 -395 -207 -640 -392 l-95 -71 -40 45 c-56 65
-129 96 -225 95 -143 0 -274 -57 -385 -168 -56 -55 -80 -90 -117 -165 -70
-143 -116 -359 -105 -486 l6 -61 -83 -6 c-206 -14 -377 -100 -432 -215 -9 -20
-19 -67 -22 -104 -12 -172 57 -378 215 -645 l55 -93 1907 0 1908 0 46 30 c150
100 197 250 121 390 -32 58 -85 105 -188 166 -78 45 -77 32 -15 190 69 176 74
252 23 314 -30 35 -68 47 -186 56 l-88 7 0 76 c0 107 -16 201 -38 230 -32 44
-96 71 -210 92 -59 10 -112 21 -118 23 -6 2 -14 48 -18 108 -10 157 -33 217
-105 265 -52 35 -95 43 -246 43 -150 0 -273 -15 -452 -55 -62 -14 -125 -25
-141 -25 l-29 0 -5 98 c-5 99 -27 172 -66 215 -47 53 -152 72 -232 43z"/>
</g>
</svg>
